<svg width="12" height="13" viewBox="0 0 12 13" fill="none" xmlns="http://www.w3.org/2000/svg">
<g id="Group">
<g id="Group_2">
<g id="Group_3">
<path id="Vector" d="M8.26056 5.65625C8.26056 5.39736 8.0507 5.1875 7.79181 5.1875H2.96368C2.70479 5.1875 2.49493 5.39736 2.49493 5.65625C2.49493 5.91514 2.70479 6.125 2.96368 6.125H7.79181C8.0507 6.125 8.26056 5.91514 8.26056 5.65625Z" fill="white"/>
<path id="Vector_2" d="M2.96368 7.0625C2.70479 7.0625 2.49493 7.27236 2.49493 7.53125C2.49493 7.79014 2.70479 8 2.96368 8H5.89597C6.15486 8 6.36472 7.79014 6.36472 7.53125C6.36472 7.27236 6.15486 7.0625 5.89597 7.0625H2.96368Z" fill="white"/>
<path id="Vector_3" d="M4.06554 11.5625H2.49783C1.9809 11.5625 1.56033 11.1419 1.56033 10.625V2.375C1.56033 1.85806 1.9809 1.4375 2.49783 1.4375H8.26086C8.77779 1.4375 9.19836 1.85806 9.19836 2.375V5.25781C9.19836 5.5167 9.40822 5.72656 9.66711 5.72656C9.926 5.72656 10.1359 5.5167 10.1359 5.25781V2.375C10.1359 1.34113 9.29473 0.5 8.26086 0.5H2.49783C1.46396 0.5 0.622833 1.34113 0.622833 2.375V10.625C0.622833 11.6589 1.46396 12.5 2.49783 12.5H4.06554C4.32444 12.5 4.53429 12.2901 4.53429 12.0312C4.53429 11.7724 4.32444 11.5625 4.06554 11.5625Z" fill="white"/>
<path id="Vector_4" d="M10.9659 7.28677C10.4176 6.73847 9.52546 6.73845 8.97751 7.28639L6.404 9.8542C6.34935 9.90874 6.30904 9.97591 6.28658 10.0498L5.72612 11.8949C5.67643 12.0585 5.71972 12.2361 5.83911 12.3585C5.92855 12.4502 6.05005 12.4999 6.17467 12.4999C6.21636 12.4999 6.25846 12.4943 6.29978 12.4829L8.19177 11.9588C8.26963 11.9372 8.3406 11.8959 8.39779 11.8388L10.9659 9.27553C11.5142 8.72724 11.5142 7.83511 10.9659 7.28677ZM7.82272 11.0882L6.87088 11.3519L7.14943 10.4348L8.88589 8.7022L9.54894 9.36525L7.82272 11.0882ZM10.3033 8.61234L10.2125 8.70298L9.54957 8.04005L9.64009 7.94972C9.82285 7.76695 10.1202 7.76695 10.303 7.94972C10.4858 8.13249 10.4858 8.42986 10.3033 8.61234Z" fill="white"/>
<path id="Vector_5" d="M7.79181 3.3125H2.96368C2.70479 3.3125 2.49493 3.52236 2.49493 3.78125C2.49493 4.04014 2.70479 4.25 2.96368 4.25H7.79181C8.0507 4.25 8.26056 4.04014 8.26056 3.78125C8.26056 3.52236 8.0507 3.3125 7.79181 3.3125Z" fill="white"/>
</g>
</g>
</g>
</svg>
