<svg width="12" height="13" viewBox="0 0 12 13" fill="none" xmlns="http://www.w3.org/2000/svg">
<g id="Group">
<path id="Vector" d="M10.02 12.5H1.98C0.9 12.5 0 11.588 0 10.496V6.116C0 5.564 0.24 5.024 0.66 4.652L4.68 1.004C5.46 0.332 6.54 0.332 7.32 1.004L11.34 4.652C11.76 5.012 12 5.564 12 6.116V10.496C11.94 11.648 11.1 12.5 10.02 12.5ZM6 1.736C5.82 1.736 5.64 1.796 5.46 1.916L1.44 5.564C1.26 5.684 1.2 5.924 1.2 6.176V10.556C1.2 10.976 1.56 11.348 1.98 11.348H9.96C10.38 11.348 10.74 10.988 10.74 10.556V6.176C10.74 5.936 10.62 5.756 10.5 5.564L6.48 1.916C6.36 1.796 6.18 1.736 6 1.736Z" fill="white"/>
</g>
</svg>
