<svg width="12" height="13" viewBox="0 0 12 13" fill="none" xmlns="http://www.w3.org/2000/svg">
<g id="Reparo">
<path id="XMLID_1644_" d="M8.8125 11.75C8.08875 11.75 7.5 11.1613 7.5 10.4375V5.51264C6.80062 5.06676 6.375 4.29989 6.375 3.46026C6.375 2.54151 6.88425 1.71051 7.704 1.29089C7.82063 1.23164 7.95937 1.23651 8.07075 1.30476C8.18212 1.37339 8.25 1.49414 8.25 1.62501V3.24614L8.8125 3.47114L9.375 3.24614V1.62501C9.375 1.49414 9.44288 1.37339 9.55425 1.30476C9.66563 1.23651 9.80437 1.23164 9.921 1.29089C10.7407 1.71089 11.25 2.54151 11.25 3.46064C11.25 4.29989 10.8244 5.06676 10.125 5.51301V10.4375C10.125 11.1613 9.53625 11.75 8.8125 11.75ZM7.5 2.39976C7.26112 2.69414 7.125 3.06539 7.125 3.46026C7.125 4.09551 7.47787 4.67114 8.046 4.96214C8.17125 5.02626 8.25 5.15526 8.25 5.29589V10.4375C8.25 10.7476 8.50237 11 8.8125 11C9.12263 11 9.375 10.7476 9.375 10.4375V5.29589C9.375 5.15526 9.45375 5.02626 9.579 4.96214C10.1471 4.67114 10.5 4.09589 10.5 3.46064C10.5 3.06576 10.3639 2.69451 10.125 2.40014V3.50001C10.125 3.65339 10.0316 3.79101 9.8895 3.84839L8.952 4.22339C8.86238 4.25939 8.763 4.25939 8.67337 4.22339L7.73587 3.84839C7.59337 3.79101 7.5 3.65339 7.5 3.50001V2.39976Z" fill="white"/>
<path id="Vector" d="M6.40275 11.75H5.59762C5.208 11.75 4.8795 11.4459 4.84987 11.0577L4.80263 10.4446C4.54538 10.3666 4.29637 10.2631 4.05825 10.1356L3.591 10.5357C3.29513 10.7896 2.84812 10.772 2.57288 10.4971L2.00288 9.92675C1.72763 9.6515 1.71038 9.20413 1.96388 8.90825L2.364 8.44137C2.2365 8.20325 2.133 7.95425 2.055 7.697L1.44225 7.65012C1.05413 7.62087 0.75 7.29237 0.75 6.90275V6.09725C0.75 5.70762 1.05412 5.37913 1.44262 5.3495L2.05537 5.30263C2.13337 5.045 2.23687 4.796 2.36437 4.55825L1.96388 4.09062C1.71038 3.79513 1.72763 3.34812 2.00325 3.07213L2.5725 2.5025C2.84812 2.22688 3.2955 2.21 3.591 2.4635L4.05825 2.86363C4.29637 2.73612 4.54538 2.63262 4.80263 2.55463L4.84987 1.9415C4.8795 1.55413 5.208 1.25 5.59725 1.25H6C6.207 1.25 6.375 1.41763 6.375 1.625C6.375 1.83237 6.207 2 6 2H5.59725L5.52975 2.87788C5.517 3.04138 5.39962 3.1775 5.24025 3.21425C4.87762 3.29787 4.53262 3.44075 4.215 3.63987C4.07662 3.72725 3.897 3.71413 3.77213 3.6065L3.10275 3.03313L2.5335 3.60312L3.10687 4.27213C3.21375 4.39663 3.22688 4.57625 3.13987 4.715C2.94113 5.033 2.79787 5.378 2.71425 5.74025C2.6775 5.9 2.541 6.01737 2.3775 6.02975L1.5 6.09725V6.90275L2.3775 6.97025C2.541 6.98263 2.6775 7.10037 2.71425 7.25975C2.79787 7.62237 2.94075 7.96738 3.13987 8.285C3.22688 8.42375 3.21337 8.60337 3.10687 8.72787L2.5335 9.39688L3.10312 9.96688L3.77213 9.3935C3.897 9.28625 4.07662 9.27313 4.215 9.36013C4.533 9.55888 4.878 9.70212 5.24025 9.78575C5.4 9.82288 5.51737 9.959 5.52975 10.1221L5.59725 11H6.40238C6.41813 10.7937 6.59775 10.6396 6.80512 10.655C7.01175 10.6707 7.16625 10.8511 7.15012 11.0577C7.1205 11.4459 6.792 11.75 6.40275 11.75Z" fill="white"/>
<path id="Vector_2" d="M3.375 6.4999C3.375 5.21215 4.29525 4.12353 5.56313 3.91128C5.76675 3.8749 5.961 4.01478 5.99475 4.21915C6.02888 4.42353 5.89125 4.61665 5.68688 4.65078C4.782 4.80265 4.125 5.5804 4.125 6.4999C4.125 7.79478 5.41125 8.69778 6.62513 8.2684C6.81938 8.19903 7.03463 8.30103 7.104 8.4964C7.173 8.69178 7.071 8.9059 6.87562 8.9749C5.16825 9.57903 3.375 8.3059 3.375 6.4999Z" fill="white"/>
</g>
</svg>
